<svg width="85" height="83" viewBox="0 0 85 83" fill="none" xmlns="http://www.w3.org/2000/svg">
<g filter="url(#filter0_d_1_18)">
<circle cx="42.349" cy="38.7921" r="24.8437" fill="white"/>
</g>
<g filter="url(#filter1_d_1_18)">
<path d="M40.5956 23.4555C41.1378 21.7866 43.4989 21.7866 44.0411 23.4555L46.5453 31.1626C46.7878 31.9089 47.4833 32.4143 48.2681 32.4143H56.3718C58.1266 32.4143 58.8562 34.6598 57.4365 35.6912L50.8805 40.4544C50.2456 40.9157 49.98 41.7333 50.2225 42.4797L52.7266 50.1867C53.2689 51.8556 51.3588 53.2434 49.9391 52.212L43.3831 47.4488C42.7482 46.9875 41.8885 46.9875 41.2536 47.4488L34.6976 52.212C33.2779 53.2434 31.3678 51.8556 31.9101 50.1867L34.4142 42.4797C34.6567 41.7333 34.3911 40.9157 33.7562 40.4544L27.2002 35.6912C25.7805 34.6598 26.5101 32.4143 28.2649 32.4143H36.3686C37.1534 32.4143 37.8489 31.9089 38.0914 31.1626L40.5956 23.4555Z" fill="#F98C2A"/>
</g>
<defs>
<filter id="filter0_d_1_18" x="4.35777" y="4.55737" width="75.9825" height="75.9824" filterUnits="userSpaceOnUse" color-interpolation-filters="sRGB">
<feFlood flood-opacity="0" result="BackgroundImageFix"/>
<feColorMatrix in="SourceAlpha" type="matrix" values="0 0 0 0 0 0 0 0 0 0 0 0 0 0 0 0 0 0 127 0" result="hardAlpha"/>
<feOffset dy="3.75645"/>
<feGaussianBlur stdDeviation="6.57378"/>
<feComposite in2="hardAlpha" operator="out"/>
<feColorMatrix type="matrix" values="0 0 0 0 0.0133334 0 0 0 0 0.160267 0 0 0 0 0.266667 0 0 0 0.25 0"/>
<feBlend mode="normal" in2="BackgroundImageFix" result="effect1_dropShadow_1_18"/>
<feBlend mode="normal" in="SourceGraphic" in2="effect1_dropShadow_1_18" result="shape"/>
</filter>
<filter id="filter1_d_1_18" x="15.5813" y="16.1657" width="53.4742" height="52.0998" filterUnits="userSpaceOnUse" color-interpolation-filters="sRGB">
<feFlood flood-opacity="0" result="BackgroundImageFix"/>
<feColorMatrix in="SourceAlpha" type="matrix" values="0 0 0 0 0 0 0 0 0 0 0 0 0 0 0 0 0 0 127 0" result="hardAlpha"/>
<feOffset dy="4.83055"/>
<feGaussianBlur stdDeviation="5.43437"/>
<feComposite in2="hardAlpha" operator="out"/>
<feColorMatrix type="matrix" values="0 0 0 0 0.976471 0 0 0 0 0.54902 0 0 0 0 0.164706 0 0 0 0.76 0"/>
<feBlend mode="normal" in2="BackgroundImageFix" result="effect1_dropShadow_1_18"/>
<feBlend mode="normal" in="SourceGraphic" in2="effect1_dropShadow_1_18" result="shape"/>
</filter>
</defs>
</svg>
