<svg width="85" height="83" viewBox="0 0 85 83" fill="none" xmlns="http://www.w3.org/2000/svg">
<g clip-path="url(#clip0_1_23)">
<g filter="url(#filter0_f_1_23)">
<mask id="mask0_1_23" style="mask-type:alpha" maskUnits="userSpaceOnUse" x="21" y="25" width="43" height="42">
<path d="M42.4701 66.6487C53.8282 66.6487 63.0357 57.4412 63.0357 46.0831C63.0357 34.7251 53.8282 25.5176 42.4701 25.5176C31.1121 25.5176 21.9046 34.7251 21.9046 46.0831C21.9046 57.4412 31.1121 66.6487 42.4701 66.6487Z" fill="#C4C4C4"/>
</mask>
<g mask="url(#mask0_1_23)">
<g filter="url(#filter1_f_1_23)">
<path d="M26.7338 81.491C38.0919 81.491 47.2994 72.2835 47.2994 60.9254C47.2994 49.5674 38.0919 40.3599 26.7338 40.3599C15.3758 40.3599 6.16829 49.5674 6.16829 60.9254C6.16829 72.2835 15.3758 81.491 26.7338 81.491Z" fill="#F868EC"/>
</g>
<g filter="url(#filter2_f_1_23)">
<path d="M25.2778 80.2427C36.6358 80.2427 45.8433 71.0352 45.8433 59.6771C45.8433 48.3191 36.6358 39.1116 25.2778 39.1116C13.9197 39.1116 4.71223 48.3191 4.71223 59.6771C4.71223 71.0352 13.9197 80.2427 25.2778 80.2427Z" fill="#F868EC"/>
</g>
<g filter="url(#filter3_f_1_23)">
<path d="M64.3959 84.8357C75.7539 84.8357 84.9614 75.6282 84.9614 64.2701C84.9614 52.9121 75.7539 43.7046 64.3959 43.7046C53.0379 43.7046 43.8303 52.9121 43.8303 64.2701C43.8303 75.6282 53.0379 84.8357 64.3959 84.8357Z" fill="#F98C2A"/>
</g>
<g filter="url(#filter4_f_1_23)">
<path d="M77.9046 77.7466C89.2626 77.7466 98.4701 68.5391 98.4701 57.181C98.4701 45.823 89.2626 36.6155 77.9046 36.6155C66.5465 36.6155 57.339 45.823 57.339 57.181C57.339 68.5391 66.5465 77.7466 77.9046 77.7466Z" fill="#F98C2A"/>
</g>
<g filter="url(#filter5_f_1_23)">
<path d="M29.302 39.8831C40.66 39.8831 49.8675 30.6756 49.8675 19.3175C49.8675 7.95947 40.66 -1.24805 29.302 -1.24805C17.9439 -1.24805 8.73642 7.95947 8.73642 19.3175C8.73642 30.6756 17.9439 39.8831 29.302 39.8831Z" fill="#00D1EA"/>
</g>
<g filter="url(#filter6_f_1_23)">
<path d="M24.4459 44.8809C35.8039 44.8809 45.0114 35.6734 45.0114 24.3153C45.0114 12.9573 35.8039 3.74976 24.4459 3.74976C13.0878 3.74976 3.88033 12.9573 3.88033 24.3153C3.88033 35.6734 13.0878 44.8809 24.4459 44.8809Z" fill="#00D1EA"/>
</g>
<g opacity="0.4">
<mask id="mask1_1_23" style="mask-type:alpha" maskUnits="userSpaceOnUse" x="21" y="25" width="43" height="42">
<g opacity="0.4">
<path opacity="0.4" d="M42.4701 66.6487C53.8282 66.6487 63.0357 57.4412 63.0357 46.0831C63.0357 34.7251 53.8282 25.5176 42.4701 25.5176C31.1121 25.5176 21.9046 34.7251 21.9046 46.0831C21.9046 57.4412 31.1121 66.6487 42.4701 66.6487Z" fill="#C4C4C4"/>
</g>
</mask>
<g mask="url(#mask1_1_23)">
</g>
<mask id="mask2_1_23" style="mask-type:alpha" maskUnits="userSpaceOnUse" x="21" y="25" width="43" height="42">
<g opacity="0.4">
<path opacity="0.4" d="M42.4701 66.6487C53.8282 66.6487 63.0357 57.4412 63.0357 46.0831C63.0357 34.7251 53.8282 25.5176 42.4701 25.5176C31.1121 25.5176 21.9046 34.7251 21.9046 46.0831C21.9046 57.4412 31.1121 66.6487 42.4701 66.6487Z" fill="#C4C4C4"/>
</g>
</mask>
<g mask="url(#mask2_1_23)">
<g opacity="0.4">
<g opacity="0.4" filter="url(#filter7_f_1_23)">
<path opacity="0.4" d="M26.5261 79.8269C37.8841 79.8269 47.0916 70.6194 47.0916 59.2614C47.0916 47.9033 37.8841 38.6958 26.5261 38.6958C15.168 38.6958 5.96049 47.9033 5.96049 59.2614C5.96049 70.6194 15.168 79.8269 26.5261 79.8269Z" fill="#F868EC"/>
</g>
<g opacity="0.4" filter="url(#filter8_f_1_23)">
<path opacity="0.4" d="M63.7599 80.0349C75.118 80.0349 84.3255 70.8274 84.3255 59.4694C84.3255 48.1113 75.118 38.9038 63.7599 38.9038C52.4019 38.9038 43.1944 48.1113 43.1944 59.4694C43.1944 70.8274 52.4019 80.0349 63.7599 80.0349Z" fill="#F98C2A"/>
</g>
<g opacity="0.4" filter="url(#filter9_f_1_23)">
<path opacity="0.4" d="M66.0479 60.0659C77.406 60.0659 86.6135 50.8584 86.6135 39.5004C86.6135 28.1423 77.406 18.9348 66.0479 18.9348C54.6899 18.9348 45.4824 28.1423 45.4824 39.5004C45.4824 50.8584 54.6899 60.0659 66.0479 60.0659Z" fill="#F98C2A"/>
</g>
<g opacity="0.4" filter="url(#filter10_f_1_23)">
<path opacity="0.4" d="M33.3903 42.593C44.7484 42.593 53.9559 33.3855 53.9559 22.0275C53.9559 10.6694 44.7484 1.46191 33.3903 1.46191C22.0323 1.46191 12.8248 10.6694 12.8248 22.0275C12.8248 33.3855 22.0323 42.593 33.3903 42.593Z" fill="#00D1EA"/>
</g>
<g opacity="0.4" filter="url(#filter11_f_1_23)">
<path opacity="0.4" d="M39.6307 39.0566C50.9887 39.0566 60.1963 29.8491 60.1963 18.4911C60.1963 7.13305 50.9887 -2.07446 39.6307 -2.07446C28.2727 -2.07446 19.0652 7.13305 19.0652 18.4911C19.0652 29.8491 28.2727 39.0566 39.6307 39.0566Z" fill="#00D1EA"/>
</g>
</g>
</g>
</g>
</g>
</g>
<g opacity="0.6" filter="url(#filter12_f_1_23)">
<mask id="mask3_1_23" style="mask-type:alpha" maskUnits="userSpaceOnUse" x="21" y="25" width="43" height="42">
<path d="M42.4701 66.6487C53.8282 66.6487 63.0357 57.4412 63.0357 46.0831C63.0357 34.7251 53.8282 25.5176 42.4701 25.5176C31.1121 25.5176 21.9046 34.7251 21.9046 46.0831C21.9046 57.4412 31.1121 66.6487 42.4701 66.6487Z" fill="#C4C4C4"/>
</mask>
<g mask="url(#mask3_1_23)">
<g filter="url(#filter13_f_1_23)">
<path d="M26.7338 81.491C38.0919 81.491 47.2994 72.2835 47.2994 60.9254C47.2994 49.5674 38.0919 40.3599 26.7338 40.3599C15.3758 40.3599 6.16829 49.5674 6.16829 60.9254C6.16829 72.2835 15.3758 81.491 26.7338 81.491Z" fill="#F868EC"/>
</g>
<g filter="url(#filter14_f_1_23)">
<path d="M25.2778 80.2427C36.6358 80.2427 45.8433 71.0352 45.8433 59.6771C45.8433 48.3191 36.6358 39.1116 25.2778 39.1116C13.9197 39.1116 4.71223 48.3191 4.71223 59.6771C4.71223 71.0352 13.9197 80.2427 25.2778 80.2427Z" fill="#F868EC"/>
</g>
<g filter="url(#filter15_f_1_23)">
<path d="M64.3959 84.8357C75.7539 84.8357 84.9614 75.6282 84.9614 64.2701C84.9614 52.9121 75.7539 43.7046 64.3959 43.7046C53.0379 43.7046 43.8303 52.9121 43.8303 64.2701C43.8303 75.6282 53.0379 84.8357 64.3959 84.8357Z" fill="#F98C2A"/>
</g>
<g filter="url(#filter16_f_1_23)">
<path d="M77.9046 77.7466C89.2626 77.7466 98.4701 68.5391 98.4701 57.181C98.4701 45.823 89.2626 36.6155 77.9046 36.6155C66.5465 36.6155 57.339 45.823 57.339 57.181C57.339 68.5391 66.5465 77.7466 77.9046 77.7466Z" fill="#F98C2A"/>
</g>
<g filter="url(#filter17_f_1_23)">
<path d="M29.302 39.8831C40.66 39.8831 49.8675 30.6756 49.8675 19.3175C49.8675 7.95947 40.66 -1.24805 29.302 -1.24805C17.9439 -1.24805 8.73642 7.95947 8.73642 19.3175C8.73642 30.6756 17.9439 39.8831 29.302 39.8831Z" fill="#00D1EA"/>
</g>
<g filter="url(#filter18_f_1_23)">
<path d="M24.4459 44.8809C35.8039 44.8809 45.0114 35.6734 45.0114 24.3153C45.0114 12.9573 35.8039 3.74976 24.4459 3.74976C13.0878 3.74976 3.88033 12.9573 3.88033 24.3153C3.88033 35.6734 13.0878 44.8809 24.4459 44.8809Z" fill="#00D1EA"/>
</g>
<g opacity="0.4">
<mask id="mask4_1_23" style="mask-type:alpha" maskUnits="userSpaceOnUse" x="21" y="25" width="43" height="42">
<g opacity="0.4">
<path opacity="0.4" d="M42.4701 66.6487C53.8282 66.6487 63.0357 57.4412 63.0357 46.0831C63.0357 34.7251 53.8282 25.5176 42.4701 25.5176C31.1121 25.5176 21.9046 34.7251 21.9046 46.0831C21.9046 57.4412 31.1121 66.6487 42.4701 66.6487Z" fill="#C4C4C4"/>
</g>
</mask>
<g mask="url(#mask4_1_23)">
</g>
<mask id="mask5_1_23" style="mask-type:alpha" maskUnits="userSpaceOnUse" x="21" y="25" width="43" height="42">
<g opacity="0.4">
<path opacity="0.4" d="M42.4701 66.6487C53.8282 66.6487 63.0357 57.4412 63.0357 46.0831C63.0357 34.7251 53.8282 25.5176 42.4701 25.5176C31.1121 25.5176 21.9046 34.7251 21.9046 46.0831C21.9046 57.4412 31.1121 66.6487 42.4701 66.6487Z" fill="#C4C4C4"/>
</g>
</mask>
<g mask="url(#mask5_1_23)">
<g opacity="0.4">
<g opacity="0.4" filter="url(#filter19_f_1_23)">
<path opacity="0.4" d="M26.5261 79.8269C37.8841 79.8269 47.0916 70.6194 47.0916 59.2614C47.0916 47.9033 37.8841 38.6958 26.5261 38.6958C15.168 38.6958 5.96049 47.9033 5.96049 59.2614C5.96049 70.6194 15.168 79.8269 26.5261 79.8269Z" fill="#F868EC"/>
</g>
<g opacity="0.4" filter="url(#filter20_f_1_23)">
<path opacity="0.4" d="M63.7599 80.0349C75.118 80.0349 84.3255 70.8274 84.3255 59.4694C84.3255 48.1113 75.118 38.9038 63.7599 38.9038C52.4019 38.9038 43.1944 48.1113 43.1944 59.4694C43.1944 70.8274 52.4019 80.0349 63.7599 80.0349Z" fill="#F98C2A"/>
</g>
<g opacity="0.4" filter="url(#filter21_f_1_23)">
<path opacity="0.4" d="M66.0479 60.0659C77.406 60.0659 86.6135 50.8584 86.6135 39.5004C86.6135 28.1423 77.406 18.9348 66.0479 18.9348C54.6899 18.9348 45.4824 28.1423 45.4824 39.5004C45.4824 50.8584 54.6899 60.0659 66.0479 60.0659Z" fill="#F98C2A"/>
</g>
<g opacity="0.4" filter="url(#filter22_f_1_23)">
<path opacity="0.4" d="M33.3903 42.593C44.7484 42.593 53.9559 33.3855 53.9559 22.0275C53.9559 10.6694 44.7484 1.46191 33.3903 1.46191C22.0323 1.46191 12.8248 10.6694 12.8248 22.0275C12.8248 33.3855 22.0323 42.593 33.3903 42.593Z" fill="#00D1EA"/>
</g>
<g opacity="0.4" filter="url(#filter23_f_1_23)">
<path opacity="0.4" d="M39.6307 39.0566C50.9887 39.0566 60.1963 29.8491 60.1963 18.4911C60.1963 7.13305 50.9887 -2.07446 39.6307 -2.07446C28.2727 -2.07446 19.0652 7.13305 19.0652 18.4911C19.0652 29.8491 28.2727 39.0566 39.6307 39.0566Z" fill="#00D1EA"/>
</g>
</g>
</g>
</g>
</g>
</g>
<path d="M42.47 66.6487C56.2331 66.6487 67.3903 55.4915 67.3903 41.7284C67.3903 27.9653 56.2331 16.8081 42.47 16.8081C28.7069 16.8081 17.5497 27.9653 17.5497 41.7284C17.5497 55.4915 28.7069 66.6487 42.47 66.6487Z" fill="white"/>
<mask id="mask6_1_23" style="mask-type:alpha" maskUnits="userSpaceOnUse" x="22" y="21" width="41" height="42">
<path d="M42.47 62.0433C53.6435 62.0433 62.7014 52.9854 62.7014 41.8119C62.7014 30.6384 53.6435 21.5806 42.47 21.5806C31.2965 21.5806 22.2387 30.6384 22.2387 41.8119C22.2387 52.9854 31.2965 62.0433 42.47 62.0433Z" fill="#C4C4C4"/>
</mask>
<g mask="url(#mask6_1_23)">
<g filter="url(#filter24_f_1_23)">
<path d="M26.9896 76.6443C38.163 76.6443 47.2209 67.5864 47.2209 56.413C47.2209 45.2395 38.163 36.1816 26.9896 36.1816C15.8161 36.1816 6.75821 45.2395 6.75821 56.413C6.75821 67.5864 15.8161 76.6443 26.9896 76.6443Z" fill="#F868EC"/>
</g>
<g filter="url(#filter25_f_1_23)">
<path d="M25.5572 75.4165C36.7306 75.4165 45.7885 66.3587 45.7885 55.1852C45.7885 44.0117 36.7306 34.9539 25.5572 34.9539C14.3837 34.9539 5.32584 44.0117 5.32584 55.1852C5.32584 66.3587 14.3837 75.4165 25.5572 75.4165Z" fill="#F868EC"/>
</g>
<g filter="url(#filter26_f_1_23)">
<path d="M64.0396 79.9348C75.2131 79.9348 84.2709 70.877 84.2709 59.7035C84.2709 48.53 75.2131 39.4722 64.0396 39.4722C52.8661 39.4722 43.8083 48.53 43.8083 59.7035C43.8083 70.877 52.8661 79.9348 64.0396 79.9348Z" fill="#F98C2A"/>
</g>
<g filter="url(#filter27_f_1_23)">
<path d="M77.3287 72.961C88.5022 72.961 97.5601 63.9031 97.5601 52.7296C97.5601 41.5562 88.5022 32.4983 77.3287 32.4983C66.1553 32.4983 57.0974 41.5562 57.0974 52.7296C57.0974 63.9031 66.1553 72.961 77.3287 72.961Z" fill="#F98C2A"/>
</g>
<g filter="url(#filter28_f_1_23)">
<path d="M29.5159 35.7127C40.6894 35.7127 49.7472 26.6548 49.7472 15.4813C49.7472 4.30788 40.6894 -4.75 29.5159 -4.75C18.3424 -4.75 9.28456 4.30788 9.28456 15.4813C9.28456 26.6548 18.3424 35.7127 29.5159 35.7127Z" fill="#00D1EA"/>
</g>
<g filter="url(#filter29_f_1_23)">
<path d="M24.7387 40.6292C35.9122 40.6292 44.9701 31.5713 44.9701 20.3978C44.9701 9.22438 35.9122 0.166504 24.7387 0.166504C13.5653 0.166504 4.50739 9.22438 4.50739 20.3978C4.50739 31.5713 13.5653 40.6292 24.7387 40.6292Z" fill="#00D1EA"/>
</g>
<g opacity="0.4">
<mask id="mask7_1_23" style="mask-type:alpha" maskUnits="userSpaceOnUse" x="22" y="21" width="41" height="42">
<g opacity="0.4">
<path opacity="0.4" d="M42.47 62.0433C53.6435 62.0433 62.7014 52.9854 62.7014 41.8119C62.7014 30.6384 53.6435 21.5806 42.47 21.5806C31.2965 21.5806 22.2387 30.6384 22.2387 41.8119C22.2387 52.9854 31.2965 62.0433 42.47 62.0433Z" fill="#C4C4C4"/>
</g>
</mask>
<g mask="url(#mask7_1_23)">
</g>
<mask id="mask8_1_23" style="mask-type:alpha" maskUnits="userSpaceOnUse" x="22" y="21" width="41" height="42">
<g opacity="0.4">
<path opacity="0.4" d="M42.47 62.0433C53.6435 62.0433 62.7014 52.9854 62.7014 41.8119C62.7014 30.6384 53.6435 21.5806 42.47 21.5806C31.2965 21.5806 22.2387 30.6384 22.2387 41.8119C22.2387 52.9854 31.2965 62.0433 42.47 62.0433Z" fill="#C4C4C4"/>
</g>
</mask>
<g mask="url(#mask8_1_23)">
<g opacity="0.4">
<g opacity="0.4" filter="url(#filter30_f_1_23)">
<path opacity="0.4" d="M26.7849 75.0071C37.9584 75.0071 47.0163 65.9492 47.0163 54.7758C47.0163 43.6023 37.9584 34.5444 26.7849 34.5444C15.6115 34.5444 6.5536 43.6023 6.5536 54.7758C6.5536 65.9492 15.6115 75.0071 26.7849 75.0071Z" fill="#F868EC"/>
</g>
<g opacity="0.4" filter="url(#filter31_f_1_23)">
<path opacity="0.4" d="M63.4138 75.2117C74.5872 75.2117 83.6451 66.1538 83.6451 54.9804C83.6451 43.8069 74.5872 34.749 63.4138 34.749C52.2403 34.749 43.1824 43.8069 43.1824 54.9804C43.1824 66.1538 52.2403 75.2117 63.4138 75.2117Z" fill="#F98C2A"/>
</g>
<g opacity="0.4" filter="url(#filter32_f_1_23)">
<path opacity="0.4" d="M65.6646 55.5672C76.8381 55.5672 85.8959 46.5093 85.8959 35.3358C85.8959 24.1624 76.8381 15.1045 65.6646 15.1045C54.4911 15.1045 45.4333 24.1624 45.4333 35.3358C45.4333 46.5093 54.4911 55.5672 65.6646 55.5672Z" fill="#F98C2A"/>
</g>
<g opacity="0.4" filter="url(#filter33_f_1_23)">
<path opacity="0.4" d="M33.5377 38.3782C44.7112 38.3782 53.7691 29.3203 53.7691 18.1469C53.7691 6.97341 44.7112 -2.08447 33.5377 -2.08447C22.3642 -2.08447 13.3064 6.97341 13.3064 18.1469C13.3064 29.3203 22.3642 38.3782 33.5377 38.3782Z" fill="#00D1EA"/>
</g>
<g opacity="0.4" filter="url(#filter34_f_1_23)">
<path opacity="0.4" d="M39.6767 34.8995C50.8501 34.8995 59.908 25.8416 59.908 14.6681C59.908 3.49465 50.8501 -5.56323 39.6767 -5.56323C28.5032 -5.56323 19.4453 3.49465 19.4453 14.6681C19.4453 25.8416 28.5032 34.8995 39.6767 34.8995Z" fill="#00D1EA"/>
</g>
</g>
</g>
</g>
</g>
<path fill-rule="evenodd" clip-rule="evenodd" d="M47.3446 52.6451C70.1224 42.3959 86.405 29.2371 83.7129 23.2541C81.1673 17.597 62.5697 20.3808 41.2965 29.3647C47.199 28.2579 52.6528 27.6241 59.0101 28.0959C59.6985 28.1469 60.2827 28.1999 60.7755 28.2545C65.112 27.7464 68.0888 28.2614 68.8458 29.9438C70.5675 33.7701 60.1544 42.1854 45.5875 48.7401C31.0204 55.2947 17.8159 57.5066 16.0942 53.6803C15.3314 51.9853 16.9501 49.3898 20.2561 46.4545C19.8778 44.6604 19.7863 43.1119 19.7968 42.4334C19.194 42.3586 18.4578 42.081 17.95 41.4987C6.26799 48.9915 -0.59404 56.3226 1.22712 60.3699C3.91927 66.353 24.5668 62.8944 47.3446 52.6451Z" fill="white"/>
</g>
<defs>
<filter id="filter0_f_1_23" x="1.24409" y="4.85711" width="82.452" height="82.452" filterUnits="userSpaceOnUse" color-interpolation-filters="sRGB">
<feFlood flood-opacity="0" result="BackgroundImageFix"/>
<feBlend mode="normal" in="SourceGraphic" in2="BackgroundImageFix" result="shape"/>
<feGaussianBlur stdDeviation="10.3302" result="effect1_foregroundBlur_1_23"/>
</filter>
<filter id="filter1_f_1_23" x="-18.5618" y="15.6297" width="90.5913" height="90.5913" filterUnits="userSpaceOnUse" color-interpolation-filters="sRGB">
<feFlood flood-opacity="0" result="BackgroundImageFix"/>
<feBlend mode="normal" in="SourceGraphic" in2="BackgroundImageFix" result="shape"/>
<feGaussianBlur stdDeviation="12.3651" result="effect1_foregroundBlur_1_23"/>
</filter>
<filter id="filter2_f_1_23" x="-20.0179" y="14.3815" width="90.5913" height="90.5913" filterUnits="userSpaceOnUse" color-interpolation-filters="sRGB">
<feFlood flood-opacity="0" result="BackgroundImageFix"/>
<feBlend mode="normal" in="SourceGraphic" in2="BackgroundImageFix" result="shape"/>
<feGaussianBlur stdDeviation="12.3651" result="effect1_foregroundBlur_1_23"/>
</filter>
<filter id="filter3_f_1_23" x="28.374" y="28.2483" width="72.0438" height="72.0437" filterUnits="userSpaceOnUse" color-interpolation-filters="sRGB">
<feFlood flood-opacity="0" result="BackgroundImageFix"/>
<feBlend mode="normal" in="SourceGraphic" in2="BackgroundImageFix" result="shape"/>
<feGaussianBlur stdDeviation="7.72816" result="effect1_foregroundBlur_1_23"/>
</filter>
<filter id="filter4_f_1_23" x="41.8827" y="21.1592" width="72.0437" height="72.0437" filterUnits="userSpaceOnUse" color-interpolation-filters="sRGB">
<feFlood flood-opacity="0" result="BackgroundImageFix"/>
<feBlend mode="normal" in="SourceGraphic" in2="BackgroundImageFix" result="shape"/>
<feGaussianBlur stdDeviation="7.72816" result="effect1_foregroundBlur_1_23"/>
</filter>
<filter id="filter5_f_1_23" x="-15.9937" y="-25.9782" width="90.5913" height="90.5913" filterUnits="userSpaceOnUse" color-interpolation-filters="sRGB">
<feFlood flood-opacity="0" result="BackgroundImageFix"/>
<feBlend mode="normal" in="SourceGraphic" in2="BackgroundImageFix" result="shape"/>
<feGaussianBlur stdDeviation="12.3651" result="effect1_foregroundBlur_1_23"/>
</filter>
<filter id="filter6_f_1_23" x="-20.8498" y="-20.9804" width="90.5913" height="90.5913" filterUnits="userSpaceOnUse" color-interpolation-filters="sRGB">
<feFlood flood-opacity="0" result="BackgroundImageFix"/>
<feBlend mode="normal" in="SourceGraphic" in2="BackgroundImageFix" result="shape"/>
<feGaussianBlur stdDeviation="12.3651" result="effect1_foregroundBlur_1_23"/>
</filter>
<filter id="filter7_f_1_23" x="-18.7696" y="13.9657" width="90.5913" height="90.5913" filterUnits="userSpaceOnUse" color-interpolation-filters="sRGB">
<feFlood flood-opacity="0" result="BackgroundImageFix"/>
<feBlend mode="normal" in="SourceGraphic" in2="BackgroundImageFix" result="shape"/>
<feGaussianBlur stdDeviation="12.3651" result="effect1_foregroundBlur_1_23"/>
</filter>
<filter id="filter8_f_1_23" x="27.7381" y="23.4475" width="72.0437" height="72.0437" filterUnits="userSpaceOnUse" color-interpolation-filters="sRGB">
<feFlood flood-opacity="0" result="BackgroundImageFix"/>
<feBlend mode="normal" in="SourceGraphic" in2="BackgroundImageFix" result="shape"/>
<feGaussianBlur stdDeviation="7.72816" result="effect1_foregroundBlur_1_23"/>
</filter>
<filter id="filter9_f_1_23" x="30.0261" y="3.47849" width="72.0437" height="72.0437" filterUnits="userSpaceOnUse" color-interpolation-filters="sRGB">
<feFlood flood-opacity="0" result="BackgroundImageFix"/>
<feBlend mode="normal" in="SourceGraphic" in2="BackgroundImageFix" result="shape"/>
<feGaussianBlur stdDeviation="7.72816" result="effect1_foregroundBlur_1_23"/>
</filter>
<filter id="filter10_f_1_23" x="-11.9053" y="-23.2682" width="90.5913" height="90.5913" filterUnits="userSpaceOnUse" color-interpolation-filters="sRGB">
<feFlood flood-opacity="0" result="BackgroundImageFix"/>
<feBlend mode="normal" in="SourceGraphic" in2="BackgroundImageFix" result="shape"/>
<feGaussianBlur stdDeviation="12.3651" result="effect1_foregroundBlur_1_23"/>
</filter>
<filter id="filter11_f_1_23" x="-5.66496" y="-26.8046" width="90.5913" height="90.5913" filterUnits="userSpaceOnUse" color-interpolation-filters="sRGB">
<feFlood flood-opacity="0" result="BackgroundImageFix"/>
<feBlend mode="normal" in="SourceGraphic" in2="BackgroundImageFix" result="shape"/>
<feGaussianBlur stdDeviation="12.3651" result="effect1_foregroundBlur_1_23"/>
</filter>
<filter id="filter12_f_1_23" x="1.24409" y="4.85711" width="82.452" height="82.452" filterUnits="userSpaceOnUse" color-interpolation-filters="sRGB">
<feFlood flood-opacity="0" result="BackgroundImageFix"/>
<feBlend mode="normal" in="SourceGraphic" in2="BackgroundImageFix" result="shape"/>
<feGaussianBlur stdDeviation="10.3302" result="effect1_foregroundBlur_1_23"/>
</filter>
<filter id="filter13_f_1_23" x="-18.5618" y="15.6297" width="90.5913" height="90.5913" filterUnits="userSpaceOnUse" color-interpolation-filters="sRGB">
<feFlood flood-opacity="0" result="BackgroundImageFix"/>
<feBlend mode="normal" in="SourceGraphic" in2="BackgroundImageFix" result="shape"/>
<feGaussianBlur stdDeviation="12.3651" result="effect1_foregroundBlur_1_23"/>
</filter>
<filter id="filter14_f_1_23" x="-20.0179" y="14.3815" width="90.5913" height="90.5913" filterUnits="userSpaceOnUse" color-interpolation-filters="sRGB">
<feFlood flood-opacity="0" result="BackgroundImageFix"/>
<feBlend mode="normal" in="SourceGraphic" in2="BackgroundImageFix" result="shape"/>
<feGaussianBlur stdDeviation="12.3651" result="effect1_foregroundBlur_1_23"/>
</filter>
<filter id="filter15_f_1_23" x="28.374" y="28.2483" width="72.0438" height="72.0437" filterUnits="userSpaceOnUse" color-interpolation-filters="sRGB">
<feFlood flood-opacity="0" result="BackgroundImageFix"/>
<feBlend mode="normal" in="SourceGraphic" in2="BackgroundImageFix" result="shape"/>
<feGaussianBlur stdDeviation="7.72816" result="effect1_foregroundBlur_1_23"/>
</filter>
<filter id="filter16_f_1_23" x="41.8827" y="21.1592" width="72.0437" height="72.0437" filterUnits="userSpaceOnUse" color-interpolation-filters="sRGB">
<feFlood flood-opacity="0" result="BackgroundImageFix"/>
<feBlend mode="normal" in="SourceGraphic" in2="BackgroundImageFix" result="shape"/>
<feGaussianBlur stdDeviation="7.72816" result="effect1_foregroundBlur_1_23"/>
</filter>
<filter id="filter17_f_1_23" x="-15.9937" y="-25.9782" width="90.5913" height="90.5913" filterUnits="userSpaceOnUse" color-interpolation-filters="sRGB">
<feFlood flood-opacity="0" result="BackgroundImageFix"/>
<feBlend mode="normal" in="SourceGraphic" in2="BackgroundImageFix" result="shape"/>
<feGaussianBlur stdDeviation="12.3651" result="effect1_foregroundBlur_1_23"/>
</filter>
<filter id="filter18_f_1_23" x="-20.8498" y="-20.9804" width="90.5913" height="90.5913" filterUnits="userSpaceOnUse" color-interpolation-filters="sRGB">
<feFlood flood-opacity="0" result="BackgroundImageFix"/>
<feBlend mode="normal" in="SourceGraphic" in2="BackgroundImageFix" result="shape"/>
<feGaussianBlur stdDeviation="12.3651" result="effect1_foregroundBlur_1_23"/>
</filter>
<filter id="filter19_f_1_23" x="-18.7696" y="13.9657" width="90.5913" height="90.5913" filterUnits="userSpaceOnUse" color-interpolation-filters="sRGB">
<feFlood flood-opacity="0" result="BackgroundImageFix"/>
<feBlend mode="normal" in="SourceGraphic" in2="BackgroundImageFix" result="shape"/>
<feGaussianBlur stdDeviation="12.3651" result="effect1_foregroundBlur_1_23"/>
</filter>
<filter id="filter20_f_1_23" x="27.7381" y="23.4475" width="72.0437" height="72.0437" filterUnits="userSpaceOnUse" color-interpolation-filters="sRGB">
<feFlood flood-opacity="0" result="BackgroundImageFix"/>
<feBlend mode="normal" in="SourceGraphic" in2="BackgroundImageFix" result="shape"/>
<feGaussianBlur stdDeviation="7.72816" result="effect1_foregroundBlur_1_23"/>
</filter>
<filter id="filter21_f_1_23" x="30.0261" y="3.47849" width="72.0437" height="72.0437" filterUnits="userSpaceOnUse" color-interpolation-filters="sRGB">
<feFlood flood-opacity="0" result="BackgroundImageFix"/>
<feBlend mode="normal" in="SourceGraphic" in2="BackgroundImageFix" result="shape"/>
<feGaussianBlur stdDeviation="7.72816" result="effect1_foregroundBlur_1_23"/>
</filter>
<filter id="filter22_f_1_23" x="-11.9053" y="-23.2682" width="90.5913" height="90.5913" filterUnits="userSpaceOnUse" color-interpolation-filters="sRGB">
<feFlood flood-opacity="0" result="BackgroundImageFix"/>
<feBlend mode="normal" in="SourceGraphic" in2="BackgroundImageFix" result="shape"/>
<feGaussianBlur stdDeviation="12.3651" result="effect1_foregroundBlur_1_23"/>
</filter>
<filter id="filter23_f_1_23" x="-5.66496" y="-26.8046" width="90.5913" height="90.5913" filterUnits="userSpaceOnUse" color-interpolation-filters="sRGB">
<feFlood flood-opacity="0" result="BackgroundImageFix"/>
<feBlend mode="normal" in="SourceGraphic" in2="BackgroundImageFix" result="shape"/>
<feGaussianBlur stdDeviation="12.3651" result="effect1_foregroundBlur_1_23"/>
</filter>
<filter id="filter24_f_1_23" x="-17.9719" y="11.4515" width="89.9229" height="89.9229" filterUnits="userSpaceOnUse" color-interpolation-filters="sRGB">
<feFlood flood-opacity="0" result="BackgroundImageFix"/>
<feBlend mode="normal" in="SourceGraphic" in2="BackgroundImageFix" result="shape"/>
<feGaussianBlur stdDeviation="12.3651" result="effect1_foregroundBlur_1_23"/>
</filter>
<filter id="filter25_f_1_23" x="-19.4043" y="10.2237" width="89.9229" height="89.9229" filterUnits="userSpaceOnUse" color-interpolation-filters="sRGB">
<feFlood flood-opacity="0" result="BackgroundImageFix"/>
<feBlend mode="normal" in="SourceGraphic" in2="BackgroundImageFix" result="shape"/>
<feGaussianBlur stdDeviation="12.3651" result="effect1_foregroundBlur_1_23"/>
</filter>
<filter id="filter26_f_1_23" x="28.3519" y="24.0158" width="71.3753" height="71.3753" filterUnits="userSpaceOnUse" color-interpolation-filters="sRGB">
<feFlood flood-opacity="0" result="BackgroundImageFix"/>
<feBlend mode="normal" in="SourceGraphic" in2="BackgroundImageFix" result="shape"/>
<feGaussianBlur stdDeviation="7.72816" result="effect1_foregroundBlur_1_23"/>
</filter>
<filter id="filter27_f_1_23" x="41.6411" y="17.042" width="71.3753" height="71.3753" filterUnits="userSpaceOnUse" color-interpolation-filters="sRGB">
<feFlood flood-opacity="0" result="BackgroundImageFix"/>
<feBlend mode="normal" in="SourceGraphic" in2="BackgroundImageFix" result="shape"/>
<feGaussianBlur stdDeviation="7.72816" result="effect1_foregroundBlur_1_23"/>
</filter>
<filter id="filter28_f_1_23" x="-15.4456" y="-29.4801" width="89.9229" height="89.9229" filterUnits="userSpaceOnUse" color-interpolation-filters="sRGB">
<feFlood flood-opacity="0" result="BackgroundImageFix"/>
<feBlend mode="normal" in="SourceGraphic" in2="BackgroundImageFix" result="shape"/>
<feGaussianBlur stdDeviation="12.3651" result="effect1_foregroundBlur_1_23"/>
</filter>
<filter id="filter29_f_1_23" x="-20.2227" y="-24.5636" width="89.9229" height="89.9229" filterUnits="userSpaceOnUse" color-interpolation-filters="sRGB">
<feFlood flood-opacity="0" result="BackgroundImageFix"/>
<feBlend mode="normal" in="SourceGraphic" in2="BackgroundImageFix" result="shape"/>
<feGaussianBlur stdDeviation="12.3651" result="effect1_foregroundBlur_1_23"/>
</filter>
<filter id="filter30_f_1_23" x="-18.1765" y="9.81432" width="89.9229" height="89.9229" filterUnits="userSpaceOnUse" color-interpolation-filters="sRGB">
<feFlood flood-opacity="0" result="BackgroundImageFix"/>
<feBlend mode="normal" in="SourceGraphic" in2="BackgroundImageFix" result="shape"/>
<feGaussianBlur stdDeviation="12.3651" result="effect1_foregroundBlur_1_23"/>
</filter>
<filter id="filter31_f_1_23" x="27.7261" y="19.2927" width="71.3753" height="71.3753" filterUnits="userSpaceOnUse" color-interpolation-filters="sRGB">
<feFlood flood-opacity="0" result="BackgroundImageFix"/>
<feBlend mode="normal" in="SourceGraphic" in2="BackgroundImageFix" result="shape"/>
<feGaussianBlur stdDeviation="7.72816" result="effect1_foregroundBlur_1_23"/>
</filter>
<filter id="filter32_f_1_23" x="29.9769" y="-0.35183" width="71.3753" height="71.3753" filterUnits="userSpaceOnUse" color-interpolation-filters="sRGB">
<feFlood flood-opacity="0" result="BackgroundImageFix"/>
<feBlend mode="normal" in="SourceGraphic" in2="BackgroundImageFix" result="shape"/>
<feGaussianBlur stdDeviation="7.72816" result="effect1_foregroundBlur_1_23"/>
</filter>
<filter id="filter33_f_1_23" x="-11.4238" y="-26.8146" width="89.9229" height="89.9229" filterUnits="userSpaceOnUse" color-interpolation-filters="sRGB">
<feFlood flood-opacity="0" result="BackgroundImageFix"/>
<feBlend mode="normal" in="SourceGraphic" in2="BackgroundImageFix" result="shape"/>
<feGaussianBlur stdDeviation="12.3651" result="effect1_foregroundBlur_1_23"/>
</filter>
<filter id="filter34_f_1_23" x="-5.28477" y="-30.2934" width="89.9229" height="89.9229" filterUnits="userSpaceOnUse" color-interpolation-filters="sRGB">
<feFlood flood-opacity="0" result="BackgroundImageFix"/>
<feBlend mode="normal" in="SourceGraphic" in2="BackgroundImageFix" result="shape"/>
<feGaussianBlur stdDeviation="12.3651" result="effect1_foregroundBlur_1_23"/>
</filter>
<clipPath id="clip0_1_23">
<rect width="83.5561" height="82.4269" fill="white" transform="translate(0.791458 0.341553)"/>
</clipPath>
</defs>
</svg>
